<svg id="Layer_1" data-name="Layer 1" xmlns="http://www.w3.org/2000/svg" viewBox="0 0 175.82 122.75"><defs><style>.cls-1{fill:#c82127;}.cls-2{fill:#931a1d;}.cls-3{fill:#9f1d20;}.cls-4{fill:#ae1f23;}.cls-5,.cls-6{fill:#fff;}.cls-6{font-size:10.1px;font-family:MyriadPro-Regular, Myriad Pro;}</style></defs><title>msf_my_money</title><rect class="cls-1" width="172.82" height="122.75"/><rect class="cls-2" width="48.32" height="122.75"/><rect class="cls-3" x="48.32" width="45.26" height="122.75"/><rect class="cls-4" x="92.86" width="41.5" height="122.75"/><rect class="cls-3" x="134.32" width="41.5" height="122.75"/><path class="cls-5" d="M21,41V57H57V41Zm2,11.1V46a2.73,2.73,0,0,0,3.08-3H51.45A2.88,2.88,0,0,0,54,46V52.1A2.74,2.74,0,0,0,51.45,55H26.08C26.08,53,25,52.1,23,52.1Z" transform="translate(-14.89 -29.32)"/><circle class="cls-5" cx="14.84" cy="19.7" r="1.23"/><circle class="cls-5" cx="32.91" cy="19.7" r="1.23"/><text class="cls-6" transform="translate(21.26 23.02)">$</text><path class="cls-5" d="M68,41V57h35V41Zm2,11.1V46a3.19,3.19,0,0,0,3-3H98.34A3,3,0,0,0,101,46V52.1A2.82,2.82,0,0,0,98.34,55H73A3.06,3.06,0,0,0,70,52.1Z" transform="translate(-14.89 -29.32)"/><circle class="cls-5" cx="61.73" cy="19.7" r="1.23"/><circle class="cls-5" cx="79.8" cy="19.7" r="1.23"/><text class="cls-6" transform="translate(68.15 23.02)">$</text><path class="cls-5" d="M111,41V57h35V41Zm2,11.1V46a3.19,3.19,0,0,0,3-3h25.37A3,3,0,0,0,144,46V52.1a2.82,2.82,0,0,0-2.66,2.9H116A3.06,3.06,0,0,0,113,52.1Z" transform="translate(-14.89 -29.32)"/><circle class="cls-5" cx="104.73" cy="19.7" r="1.23"/><circle class="cls-5" cx="122.8" cy="19.7" r="1.23"/><text class="cls-6" transform="translate(111.15 23.02)">$</text><path class="cls-5" d="M152,41V57h35V41Zm2,11.1V46a3.19,3.19,0,0,0,3-3h25.37A3,3,0,0,0,185,46V52.1a2.82,2.82,0,0,0-2.66,2.9H157A3.06,3.06,0,0,0,154,52.1Z" transform="translate(-14.89 -29.32)"/><circle class="cls-5" cx="145.73" cy="19.7" r="1.23"/><circle class="cls-5" cx="163.8" cy="19.7" r="1.23"/><text class="cls-6" transform="translate(152.15 23.02)">$</text><path class="cls-5" d="M21,62V78H57V62Zm2,11.1V67a2.73,2.73,0,0,0,3.08-3H51.45A2.88,2.88,0,0,0,54,67V73.1A2.74,2.74,0,0,0,51.45,76H26.08C26.08,74,25,73.1,23,73.1Z" transform="translate(-14.89 -29.32)"/><circle class="cls-5" cx="14.84" cy="40.7" r="1.23"/><circle class="cls-5" cx="32.91" cy="40.7" r="1.23"/><text class="cls-6" transform="translate(21.26 44.02)">$</text><path class="cls-5" d="M68,62V78h35V62Zm2,11.1V67a3.19,3.19,0,0,0,3-3H98.34A3,3,0,0,0,101,67V73.1A2.82,2.82,0,0,0,98.34,76H73A3.06,3.06,0,0,0,70,73.1Z" transform="translate(-14.89 -29.32)"/><circle class="cls-5" cx="61.73" cy="40.7" r="1.23"/><circle class="cls-5" cx="79.8" cy="40.7" r="1.23"/><text class="cls-6" transform="translate(68.15 44.02)">$</text><path class="cls-5" d="M111,62V78h35V62Zm2,11.1V67a3.19,3.19,0,0,0,3-3h25.37A3,3,0,0,0,144,67V73.1a2.82,2.82,0,0,0-2.66,2.9H116A3.06,3.06,0,0,0,113,73.1Z" transform="translate(-14.89 -29.32)"/><circle class="cls-5" cx="104.73" cy="40.7" r="1.23"/><circle class="cls-5" cx="122.8" cy="40.7" r="1.23"/><text class="cls-6" transform="translate(111.15 44.02)">$</text><path class="cls-5" d="M152,62V78h35V62Zm2,11.1V67a3.19,3.19,0,0,0,3-3h25.37A3,3,0,0,0,185,67V73.1a2.82,2.82,0,0,0-2.66,2.9H157A3.06,3.06,0,0,0,154,73.1Z" transform="translate(-14.89 -29.32)"/><circle class="cls-5" cx="145.73" cy="40.7" r="1.23"/><circle class="cls-5" cx="163.8" cy="40.7" r="1.23"/><text class="cls-6" transform="translate(152.15 44.02)">$</text><path class="cls-5" d="M21,84v16H57V84Zm2,11.1V89a2.73,2.73,0,0,0,3.08-3H51.45A2.88,2.88,0,0,0,54,89V95.1A2.74,2.74,0,0,0,51.45,98H26.08C26.08,96,25,95.1,23,95.1Z" transform="translate(-14.89 -29.32)"/><circle class="cls-5" cx="14.84" cy="62.7" r="1.23"/><circle class="cls-5" cx="32.91" cy="62.7" r="1.23"/><text class="cls-6" transform="translate(21.26 66.02)">$</text><path class="cls-5" d="M68,84v16h35V84Zm2,11.1V89a3.19,3.19,0,0,0,3-3H98.34A3,3,0,0,0,101,89V95.1A2.82,2.82,0,0,0,98.34,98H73A3.06,3.06,0,0,0,70,95.1Z" transform="translate(-14.89 -29.32)"/><circle class="cls-5" cx="61.73" cy="62.7" r="1.23"/><circle class="cls-5" cx="79.8" cy="62.7" r="1.23"/><text class="cls-6" transform="translate(68.15 66.02)">$</text><path class="cls-5" d="M111,84v16h35V84Zm2,11.1V89a3.19,3.19,0,0,0,3-3h25.37A3,3,0,0,0,144,89V95.1a2.82,2.82,0,0,0-2.66,2.9H116A3.06,3.06,0,0,0,113,95.1Z" transform="translate(-14.89 -29.32)"/><circle class="cls-5" cx="104.73" cy="62.7" r="1.23"/><circle class="cls-5" cx="122.8" cy="62.7" r="1.23"/><text class="cls-6" transform="translate(111.15 66.02)">$</text><path class="cls-5" d="M152,84v16h35V84Zm2,11.1V89a3.19,3.19,0,0,0,3-3h25.37A3,3,0,0,0,185,89V95.1a2.82,2.82,0,0,0-2.66,2.9H157A3.06,3.06,0,0,0,154,95.1Z" transform="translate(-14.89 -29.32)"/><circle class="cls-5" cx="145.73" cy="62.7" r="1.23"/><circle class="cls-5" cx="163.8" cy="62.7" r="1.23"/><text class="cls-6" transform="translate(152.15 66.02)">$</text><path class="cls-5" d="M21,106v16H57V106Zm2,11.1V111a2.73,2.73,0,0,0,3.08-3H51.45A2.88,2.88,0,0,0,54,111v6.07a2.74,2.74,0,0,0-2.55,2.9H26.08C26.08,118,25,117.1,23,117.1Z" transform="translate(-14.89 -29.32)"/><circle class="cls-5" cx="14.84" cy="84.7" r="1.23"/><circle class="cls-5" cx="32.91" cy="84.7" r="1.23"/><text class="cls-6" transform="translate(21.26 88.02)">$</text><path class="cls-5" d="M68,106v16h35V106Zm2,11.1V111a3.19,3.19,0,0,0,3-3H98.34a3,3,0,0,0,2.66,3v6.07a2.82,2.82,0,0,0-2.66,2.9H73A3.06,3.06,0,0,0,70,117.1Z" transform="translate(-14.89 -29.32)"/><circle class="cls-5" cx="61.73" cy="84.7" r="1.23"/><circle class="cls-5" cx="79.8" cy="84.7" r="1.23"/><text class="cls-6" transform="translate(68.15 88.02)">$</text><path class="cls-5" d="M111,106v16h35V106Zm2,11.1V111a3.19,3.19,0,0,0,3-3h25.37a3,3,0,0,0,2.66,3v6.07a2.82,2.82,0,0,0-2.66,2.9H116A3.06,3.06,0,0,0,113,117.1Z" transform="translate(-14.89 -29.32)"/><circle class="cls-5" cx="104.73" cy="84.7" r="1.23"/><circle class="cls-5" cx="122.8" cy="84.7" r="1.23"/><text class="cls-6" transform="translate(111.15 88.02)">$</text><path class="cls-5" d="M152,106v16h35V106Zm2,11.1V111a3.19,3.19,0,0,0,3-3h25.37a3,3,0,0,0,2.66,3v6.07a2.82,2.82,0,0,0-2.66,2.9H157A3.06,3.06,0,0,0,154,117.1Z" transform="translate(-14.89 -29.32)"/><circle class="cls-5" cx="145.73" cy="84.7" r="1.23"/><circle class="cls-5" cx="163.8" cy="84.7" r="1.23"/><text class="cls-6" transform="translate(152.15 88.02)">$</text><path class="cls-5" d="M21,127v16H57V127Zm2,11.1V132a2.73,2.73,0,0,0,3.08-3H51.45A2.88,2.88,0,0,0,54,132v6.07a2.74,2.74,0,0,0-2.55,2.9H26.08C26.08,139,25,138.1,23,138.1Z" transform="translate(-14.89 -29.32)"/><circle class="cls-5" cx="14.84" cy="105.7" r="1.23"/><circle class="cls-5" cx="32.91" cy="105.7" r="1.23"/><text class="cls-6" transform="translate(21.26 109.02)">$</text><path class="cls-5" d="M68,127v16h35V127Zm2,11.1V132a3.19,3.19,0,0,0,3-3H98.34a3,3,0,0,0,2.66,3v6.07a2.82,2.82,0,0,0-2.66,2.9H73A3.06,3.06,0,0,0,70,138.1Z" transform="translate(-14.89 -29.32)"/><circle class="cls-5" cx="61.73" cy="105.7" r="1.23"/><circle class="cls-5" cx="79.8" cy="105.7" r="1.23"/><text class="cls-6" transform="translate(68.15 109.02)">$</text><path class="cls-5" d="M111,127v16h35V127Zm2,11.1V132a3.19,3.19,0,0,0,3-3h25.37a3,3,0,0,0,2.66,3v6.07a2.82,2.82,0,0,0-2.66,2.9H116A3.06,3.06,0,0,0,113,138.1Z" transform="translate(-14.89 -29.32)"/><circle class="cls-5" cx="104.73" cy="105.7" r="1.23"/><circle class="cls-5" cx="122.8" cy="105.7" r="1.23"/><text class="cls-6" transform="translate(111.15 109.02)">$</text><path class="cls-5" d="M152,127v16h35V127Zm2,11.1V132a3.19,3.19,0,0,0,3-3h25.37a3,3,0,0,0,2.66,3v6.07a2.82,2.82,0,0,0-2.66,2.9H157A3.06,3.06,0,0,0,154,138.1Z" transform="translate(-14.89 -29.32)"/><circle class="cls-5" cx="145.73" cy="105.7" r="1.23"/><circle class="cls-5" cx="163.8" cy="105.7" r="1.23"/><text class="cls-6" transform="translate(152.15 109.02)">$</text></svg>