<svg id="Layer_1" data-name="Layer 1" xmlns="http://www.w3.org/2000/svg" xmlns:xlink="http://www.w3.org/1999/xlink" viewBox="0 0 503.98 160.22"><defs><style>.cls-1,.cls-2{fill:none;}.cls-2{stroke:#ed1c24;stroke-width:2px;}.cls-3{clip-path:url(#clip-path);}.cls-4{fill:#ed1c24;}</style><clipPath id="clip-path" transform="translate(-8.45 -7.29)"><rect class="cls-1" x="8.47" y="7.35" width="503.96" height="160.09"/></clipPath></defs><title>msf_dwblogo</title><line class="cls-2" x1="140.03" y1="129.93" x2="496.56" y2="129.93"/><g class="cls-3"><path d="M407.91,149.4c-.58,2.26-2.13,2.12-3.41,2.12h-1.25l.92-3.6h1.62c1,0,2.49,0,2.11,1.49M406.5,157c-.5,2-1.85,2-3.22,2h-1.92l1-3.87h2.13c1.22,0,2.51,0,2,1.88m6.19-8.17c.83-3.27-1.3-4.44-2.63-4.45l-9.58,0-4.66,18.2h8c3.35,0,6.08-.85,7.09-4.85.66-2.53-.3-4.2-2.14-4.45v-.06a5.65,5.65,0,0,0,3.88-4.38" transform="translate(-8.45 -7.29)"/><path d="M461.62,153.42c-.67,2.67-2.59,5.21-5.25,5.21h-2.09l2.65-10.39h2.42c2.57,0,3.16,1.81,2.28,5.19m.35-9.09h-8.66l-4.66,18.2h7.66c5.27,0,8.78-3.81,10.13-9.1,2-7.69-2.23-9.1-4.47-9.1" transform="translate(-8.45 -7.29)"/><path d="M151.93,153.42c-.67,2.67-2.6,5.21-5.26,5.21h-2.09l2.66-10.39h2.4c2.58,0,3.15,1.81,2.28,5.19m.35-9.09h-8.66L139,162.52h7.66c5.28,0,8.79-3.81,10.14-9.1,2-7.69-2.22-9.1-4.48-9.1" transform="translate(-8.45 -7.29)"/><polygon points="472.24 144.14 471.25 148.05 464.83 148.03 463.99 151.33 471.62 151.35 470.61 155.24 458.17 155.22 462.82 137.03 475.27 137.05 474.28 140.95 466.64 140.93 465.84 144.13 472.24 144.14"/><polygon points="312.37 137.02 317.2 137.03 315.46 143.79 321.6 143.8 323.33 137.03 328.15 137.04 323.51 155.24 318.68 155.23 320.6 147.71 314.47 147.7 312.55 155.22 307.72 155.22 312.37 137.02"/><polygon points="288.12 137.03 292.95 137.03 288.3 155.23 283.47 155.22 288.12 137.03"/><path d="M486.54,144.32l8.18,0c4,0,5.11,2,4.19,5.55a6.83,6.83,0,0,1-4.53,4.6c.43,2.74.8,5.6,1.3,8.05h-5.2c-.18-3.43-.35-6.9-.79-10.21a5.72,5.72,0,0,0,1.16.14,3.27,3.27,0,0,0,3.38-2.37c.5-1.94-1-1.94-1.68-1.94h-2.37l-3.67,14.38H481.9Z" transform="translate(-8.45 -7.29)"/><path d="M437.14,144.3l8.18,0c4,0,5.12,1.95,4.19,5.55a6.81,6.81,0,0,1-4.53,4.6c.43,2.74.81,5.59,1.31,8.06h-5.2c-.18-3.44-.35-6.92-.79-10.22a5.71,5.71,0,0,0,1.17.15,3.27,3.27,0,0,0,3.38-2.38c.5-1.93-1-1.93-1.69-1.93h-2.36l-3.68,14.38H432.5Z" transform="translate(-8.45 -7.29)"/><path d="M233.21,144.34l8.18,0c4,0,5.12,1.94,4.19,5.54a6.8,6.8,0,0,1-4.52,4.6c.43,2.73.79,5.6,1.3,8.06h-5.19c-.17-3.44-.36-6.91-.8-10.22a5.39,5.39,0,0,0,1.17.15,3.28,3.28,0,0,0,3.38-2.37c.49-1.94-1-1.94-1.69-1.94h-2.37l-3.67,14.38h-4.62Z" transform="translate(-8.45 -7.29)"/><polygon points="368 137.02 382.36 137.04 381.36 140.95 376.61 140.94 372.96 155.23 368.13 155.22 371.78 140.93 367.01 140.92 368 137.02"/><polygon points="295.45 137.03 309.81 137.06 308.81 140.97 304.06 140.96 300.41 155.26 295.57 155.25 299.24 140.95 294.45 140.94 295.45 137.03"/><polygon points="188.35 137.03 202.71 137.05 201.72 140.96 196.96 140.95 193.31 155.24 188.48 155.23 192.14 140.94 187.36 140.94 188.35 137.03"/><path d="M364,144.34l-2.66,10.37c-.66,2.62-.44,4.17,1.75,4.17s3.19-1.54,3.87-4.16l2.65-10.37h4.82l-3.15,12.34c-1.12,4.38-4.72,6.17-9.22,6.17s-7.16-1.82-6-6.21l3.15-12.33Z" transform="translate(-8.45 -7.29)"/><polygon points="285.19 137.04 276.25 155.24 270.37 155.23 271.26 143.98 271.22 143.98 266.35 155.22 260.75 155.22 261.32 137 265.9 137.01 265.19 149.78 265.24 149.78 270.61 137.02 275.8 137.03 274.69 149.8 274.75 149.8 280.74 137.03 285.19 137.04"/><path d="M190,162.59c-1.41.13-3.37.4-4.24.4-5.43,0-8.3-3.4-6.75-9.46s6.12-9.41,11.57-9.4a18.65,18.65,0,0,1,3.94.5l-.72,4.22a9.71,9.71,0,0,0-3.44-.74c-3.72,0-5.92,3-6.54,5.45-.71,2.81,0,5.43,3,5.43a16.86,16.86,0,0,0,4.74-.73Z" transform="translate(-8.45 -7.29)"/><path d="M245.8,157.68a6.67,6.67,0,0,0,3.69,1.24c.77,0,2.16-.14,2.5-1.42.59-2.33-4.77-4.18-3.59-8.83.55-2.12,2.62-4.71,6.84-4.71a16.52,16.52,0,0,1,3.93.52l-.58,4.31a6.08,6.08,0,0,0-3.15-.93c-.73,0-2.1.35-2.35,1.3-.69,2.68,4.83,3.95,3.62,8.69-.63,2.46-2.83,5-7.1,5a20.52,20.52,0,0,1-4.45-.63Z" transform="translate(-8.45 -7.29)"/><path d="M499.06,157.68a6.65,6.65,0,0,0,3.69,1.24c.78,0,2.17-.14,2.49-1.42.6-2.33-4.76-4.18-3.58-8.83.55-2.12,2.61-4.71,6.84-4.71a16.4,16.4,0,0,1,3.92.52l-.57,4.31a6,6,0,0,0-3.14-.93c-.73,0-2.11.35-2.34,1.3-.69,2.68,4.82,3.95,3.61,8.69-.63,2.46-2.82,5-7.11,5a20.26,20.26,0,0,1-4.43-.63Z" transform="translate(-8.45 -7.29)"/><path d="M172.24,153.53c-.72,2.81-2.81,5.43-5.73,5.43s-3.67-2.63-3-5.44,2.82-5.47,5.74-5.45,3.67,2.65,2.95,5.46m-1.93-9.44c-5.45,0-10,3.36-11.58,9.39s1.31,9.44,6.76,9.46,10-3.37,11.59-9.43-1.33-9.42-6.76-9.42" transform="translate(-8.45 -7.29)"/><path d="M222.9,153.53c-.73,2.81-2.82,5.43-5.73,5.43s-3.68-2.63-3-5.44,2.82-5.47,5.73-5.45,3.67,2.65,3,5.46M221,144.09c-5.44,0-10,3.36-11.58,9.39s1.32,9.44,6.77,9.46,10-3.37,11.57-9.43-1.31-9.42-6.76-9.42" transform="translate(-8.45 -7.29)"/><path d="M349.82,153.53c-.72,2.81-2.82,5.43-5.73,5.43s-3.67-2.63-3-5.44,2.82-5.47,5.73-5.45,3.67,2.65,3,5.46m-1.93-9.44c-5.44,0-10,3.36-11.58,9.39s1.32,9.44,6.76,9.46,10-3.37,11.59-9.43-1.33-9.42-6.78-9.42" transform="translate(-8.45 -7.29)"/><path d="M427.35,153.53c-.72,2.81-2.83,5.43-5.74,5.43s-3.68-2.63-3-5.44,2.82-5.47,5.74-5.45,3.66,2.65,3,5.46m-1.94-9.44c-5.44,0-10,3.36-11.58,9.39s1.31,9.44,6.76,9.46,10-3.37,11.58-9.43-1.33-9.42-6.77-9.42" transform="translate(-8.45 -7.29)"/><path d="M301.87,122.52l3.28-5.31h0l.34,5.32Zm7.38-9.32h-5.9c-4,6.22-8,12.51-12.25,18.55h5.39l3.23-5.34h5.76l.31,5.34H311c-.62-6.15-1.38-12.47-1.77-18.57" transform="translate(-8.45 -7.29)"/><path d="M196.9,122.6c-.7,2.73-2.65,5.31-5.38,5.31h-2.13l2.7-10.61h2.47c2.63,0,3.21,1.84,2.34,5.3m.35-9.28h-8.83l-4.75,18.56,7.79,0c5.4,0,9-3.88,10.35-9.28,2-7.85-2.28-9.29-4.57-9.29" transform="translate(-8.45 -7.29)"/><polygon points="207.5 113.19 206.48 117.18 199.94 117.15 199.09 120.53 206.87 120.54 205.85 124.52 193.14 124.49 197.89 105.94 210.6 105.95 209.58 109.93 201.8 109.91 200.96 113.18 207.5 113.19"/><polygon points="174.34 113.22 173.32 117.2 166.78 117.19 165.92 120.55 173.71 120.58 172.69 124.54 159.98 124.53 164.73 105.97 177.44 105.99 176.41 109.97 168.63 109.95 167.8 113.21 174.34 113.22"/><polygon points="228.47 106.02 233.4 106.02 228.65 124.59 223.72 124.59 228.47 106.02"/><polygon points="149.96 105.94 149.65 117.6 149.7 117.6 155.5 105.94 161.94 105.96 157.19 124.53 153.11 124.52 156.51 111.21 156.47 111.21 149.82 124.51 145.64 124.49 145.89 111.22 145.84 111.22 142.45 124.49 138.7 124.49 143.44 105.92 149.96 105.94"/><polygon points="308.9 105.89 314.72 105.9 317.64 117.99 317.68 117.99 320.77 105.92 325.08 105.92 320.34 124.49 314.59 124.48 311.55 112.61 311.5 112.61 308.47 124.47 304.16 124.46 308.9 105.89"/><polygon points="236.49 105.89 242.3 105.9 245.22 117.99 245.26 117.99 248.34 105.92 252.67 105.92 247.92 124.49 242.18 124.48 239.13 112.61 239.09 112.61 236.06 124.47 231.74 124.46 236.49 105.89"/><path d="M229.53,131.81c-1.44.15-3.44.41-4.33.41-5.56,0-8.46-3.46-6.89-9.64s6.25-9.6,11.81-9.59a19,19,0,0,1,4,.5l-.74,4.32a9.65,9.65,0,0,0-3.51-.76c-3.79,0-6,3.08-6.67,5.56-.74,2.86,0,5.54,3,5.54a16.76,16.76,0,0,0,4.83-.75Z" transform="translate(-8.45 -7.29)"/><path d="M260.1,126.93a6.82,6.82,0,0,0,3.75,1.26c.8,0,2.21-.14,2.55-1.45.6-2.36-4.87-4.27-3.66-9,.56-2.17,2.66-4.81,7-4.8a16.43,16.43,0,0,1,4,.54l-.58,4.39a6.09,6.09,0,0,0-3.21-.95c-.76,0-2.15.35-2.4,1.33-.7,2.72,4.93,4,3.7,8.86-.64,2.51-2.9,5.07-7.27,5.06a20.66,20.66,0,0,1-4.52-.65Z" transform="translate(-8.45 -7.29)"/><path d="M280.59,126.93a6.93,6.93,0,0,0,3.77,1.26c.79,0,2.21-.14,2.54-1.45.61-2.36-4.86-4.27-3.65-9,.55-2.17,2.66-4.81,7-4.8a16.31,16.31,0,0,1,4,.54l-.58,4.39a6,6,0,0,0-3.2-.95c-.76,0-2.16.35-2.4,1.33-.7,2.72,4.93,4,3.69,8.86-.64,2.51-2.9,5.07-7.25,5.06a20.58,20.58,0,0,1-4.52-.65Z" transform="translate(-8.45 -7.29)"/><path d="M332.82,126.93a6.9,6.9,0,0,0,3.77,1.26c.79,0,2.21-.14,2.54-1.45.6-2.36-4.86-4.27-3.66-9,.56-2.17,2.67-4.81,7-4.8a16.38,16.38,0,0,1,4,.54l-.57,4.39a6.11,6.11,0,0,0-3.2-.95c-.76,0-2.17.35-2.41,1.33-.69,2.72,4.93,4,3.69,8.86-.64,2.51-2.89,5.07-7.25,5.06a20.63,20.63,0,0,1-4.53-.65Z" transform="translate(-8.45 -7.29)"/><polygon points="453.06 113.17 452.06 117.15 445.51 117.13 444.65 120.5 452.44 120.52 451.43 124.49 438.71 124.48 443.46 105.91 456.16 105.94 455.15 109.91 447.37 109.89 446.53 113.16 453.06 113.17"/><polygon points="484.97 113.17 483.96 117.15 477.42 117.13 476.56 120.5 484.35 120.52 483.33 124.49 470.61 124.48 475.36 105.91 488.07 105.94 487.06 109.91 479.27 109.89 478.43 113.16 484.97 113.17"/><polygon points="357.57 113.15 356.55 117.13 350.6 117.11 348.72 124.46 343.8 124.45 348.54 105.89 360.56 105.91 359.54 109.89 352.44 109.88 351.62 113.14 357.57 113.15"/><polygon points="435.34 105.89 440.27 105.89 435.52 124.46 430.59 124.45 435.34 105.89"/><polygon points="399.67 105.89 405.48 105.9 408.39 117.99 408.44 117.99 411.53 105.92 415.85 105.92 411.1 124.49 405.36 124.48 402.32 112.61 402.27 112.61 399.23 124.47 394.93 124.46 399.67 105.89"/><path d="M467.42,113.23l8.34,0c4.13,0,5.21,2,4.27,5.66a6.94,6.94,0,0,1-4.62,4.7c.44,2.78.81,5.71,1.31,8.21h-5.29c-.18-3.51-.36-7-.81-10.42a6.09,6.09,0,0,0,1.17.13,3.34,3.34,0,0,0,3.46-2.41c.51-2-1-2-1.72-2h-2.43l-3.73,14.67h-4.73Z" transform="translate(-8.45 -7.29)"/><path d="M371.46,113.19h8.35c4.12,0,5.22,2,4.27,5.66a7,7,0,0,1-4.62,4.7c.45,2.78.82,5.71,1.32,8.22h-5.29c-.19-3.52-.36-7.06-.81-10.42a6.05,6.05,0,0,0,1.18.14,3.31,3.31,0,0,0,3.45-2.41c.51-2-1-2-1.71-2h-2.43l-3.74,14.66h-4.72Z" transform="translate(-8.45 -7.29)"/><polygon points="418.16 105.96 432.82 105.98 431.8 109.97 426.95 109.95 423.22 124.53 418.3 124.53 422.02 109.95 417.14 109.94 418.16 105.96"/><path d="M495.38,126.93a6.85,6.85,0,0,0,3.76,1.26c.79,0,2.2-.14,2.54-1.45.6-2.36-4.86-4.27-3.66-9,.56-2.17,2.66-4.81,7-4.8a16.52,16.52,0,0,1,4,.54l-.58,4.39a6.15,6.15,0,0,0-3.21-.95c-.75,0-2.16.35-2.41,1.33-.69,2.72,4.93,4,3.69,8.86-.63,2.51-2.88,5.07-7.25,5.06a20.74,20.74,0,0,1-4.53-.65Z" transform="translate(-8.45 -7.29)"/><path d="M398.23,122.56c-.73,2.88-2.86,5.55-5.85,5.54s-3.74-2.68-3-5.56,2.88-5.56,5.86-5.55,3.74,2.71,3,5.56m-2-9.63c-5.55,0-10.23,3.44-11.81,9.59s1.35,9.64,6.9,9.65,10.23-3.43,11.81-9.62-1.35-9.61-6.91-9.62" transform="translate(-8.45 -7.29)"/><path class="cls-4" d="M66.61,146.9c1.58-.92,5.12-2.82,5.54-3.06.67-.41,1.08-.36,1.09-.15.09.8.07,2.49,1.1,2.84.29.1,1.06-.26,1.2-.06a4.1,4.1,0,0,0,.49.62c.11.2.62.08.74.18.28.27,0,.6.15.78s.75-.18,1-.13a.74.74,0,0,1,.48.94c-.12.54.21,1,1.12.22.45-.38.48-.18.89-.38a.76.76,0,0,1,.8.05,2.49,2.49,0,0,0,.69.56c.38.13.77,0,1,.09s.35.65.66.69.58-.53.76-.35c.55.5-.44,1.36.24,1.55.38.11.52-.19.82-.22s.46-.39.72-.39.43.29.76.11l.72-.39c.34-.22.72-.11.93-.28s.06-.76.81-.63-.14.85.2,1.13.89,0,1.1-.06a1.89,1.89,0,0,0,.94-1,19.35,19.35,0,0,1,1-2.19c.25-.38.89-1.86,1.23-2.36s1.68-2.66,1.81-3a12.41,12.41,0,0,1,.74-1.06c.13-.25.4-1.1.74-1.78s1.27-2,1.35-2.28.79-1.89,1.06-2.41,1.14-1.67,1.36-2.21.8-1.71.8-1.71l.63-1.06s.22-.46.5-1.1,1.19-2,1.46-2.44a16.53,16.53,0,0,1,1-1.45l.54-1.21.42-.93a11,11,0,0,1,.51-1.39c.16-.3.76-1,.92-1.4s.67-2.08.94-2.58,1.46-2.69,1.59-3.13,1.4-2.7,1.52-3.16a8,8,0,0,1,.35-1.4c.16-.3.67-1.06.76-1.27s.92-2.24,1-2.53.22-.84.56-.84.58.36.79.67.77.3,1,.6a11.43,11.43,0,0,1,1.31,1.51c.05.17.6.22.73.38s.2.58.37.67a5.4,5.4,0,0,1,1.18.93,4.88,4.88,0,0,0,.6.93,8.2,8.2,0,0,1,1.31,1c.13.26,1.52,1.94,1.69,2.24s.3.8.42,1,.64.51.67.72a6.81,6.81,0,0,0,.2,1.18c.13.21.73.47.81.67a6.4,6.4,0,0,0,.47,1.15c.12.12.38.29.47.46a12.45,12.45,0,0,0,.3,1.27,9.83,9.83,0,0,1,.67,1.19c.12.29.54.83.63,1s.13,1.06.22,1.35.47.93.5,1.1.13.67.13.67l.34.8a4.51,4.51,0,0,1,.38,1.1,6.29,6.29,0,0,0,.13.84c0,.21.38.76.38.92a7.42,7.42,0,0,0,.47,1.15,4.26,4.26,0,0,0,0,1.05,4.83,4.83,0,0,1,.46,1,6.09,6.09,0,0,1-.12.76l.21.33s-.14.46,0,.63-.09.55,0,.67a6.12,6.12,0,0,1,.46,1c-.25.3-17.87,8.44-25.42,12-10.89,5.08-33.5,16.42-35.92,17.81s-3.92,2.2-4.5,1.9c-1.34-.7-3.51-2.63-5-6.77a19.33,19.33,0,0,1-1.15-7.84,2.83,2.83,0,0,1,1.69-2.93c.58-.35,3.68-2.08,5.26-3" transform="translate(-8.45 -7.29)"/><path class="cls-4" d="M35.29,84.52c.08.2.45.14.72.22s.44.31.62.33.42-.07.5,0c.28.2.23.49.38.75s.27.67.52.75.59,0,.67.3-.1.65.08,1c.47.83.06,3.16.49,3.34a3.2,3.2,0,0,0,2.13-.63,9.67,9.67,0,0,1,1.44-1.27,17,17,0,0,1,2.52-1.1C46,88,46.31,87,46.9,87s.38-.52.81-.7,1.2-.6,1.46-.34a2,2,0,0,0,.74.59c.46.18,1-.05,1,.45.13.77,1.27.09,1.27.09a19.75,19.75,0,0,1,2-1.16c.59-.26,2.17-1.08,2.17-1.08s1.24-.65,1.76-.89c19-9.14,34-14.17,47.8-19.51,21.45-8.31,58.56-17.83,65.63-19.59.74-.18,2.39-.44,2.59-.57a1.09,1.09,0,0,0,.7-.87c.18-.67-.33-1.6-.33-1.94s.75-1.69.83-2.28a.58.58,0,0,0-.5-.68,3.89,3.89,0,0,0-.08-1.27c-.16-.53-1.1-1-1.27-1.43s0-1.69-.16-2.11a2.08,2.08,0,0,0-.68-.76.79.79,0,0,0,0-.59.5.5,0,0,0-.51-.34,4.73,4.73,0,0,0,.09-1.1c-.07-.29-.51-.5-.51-.5s-.5-.34-.5-.68a.79.79,0,0,0-.34-.75,5.62,5.62,0,0,0-1.26-.26,2.85,2.85,0,0,0-1.27-.18,8.78,8.78,0,0,1-1.76.67,11.4,11.4,0,0,1-2.21.1c-.51.08-1.11.43-1.7.58-5.73,1.5-32.08,9.17-51.52,16.48a546.73,546.73,0,0,0-52.7,23.39C48.54,74.91,43.23,77.9,41,79.27a12.08,12.08,0,0,0-2.57,1.85c-.3.51-.64,1.3-1.29,1.39-.81.11-.69.55-.94.61a2.36,2.36,0,0,0-.89.63.6.6,0,0,0-.06.76" transform="translate(-8.45 -7.29)"/><path class="cls-4" d="M117.32,72.73c-.88-.52-.58-1,.45-1.46C124,68.59,139.91,62.93,149,60c7.76-2.46,29.22-9.45,35.19-11.17,1.44-.42,2-.41,2.65.27a30.37,30.37,0,0,1,4.68,6.92,37.49,37.49,0,0,1,3,8.91c.34,1.77-.47,2.07-1.44,2.5-6.64,3-23,10.15-29.83,13.36s-18.84,9-23,11.08c-1.75.88-1.46,1.24-2.64-.12a15.53,15.53,0,0,1-1.09-1.6c-.19-.25-2.46-2.28-2.71-2.53s-1.52-1.78-1.85-2-1.43-1.78-1.78-1.94a5.25,5.25,0,0,1-1.16-.7,10.28,10.28,0,0,0-1-1,9.73,9.73,0,0,1-.83-.75l-.77-.73-.67-.76a3.8,3.8,0,0,0-1-.93,3.57,3.57,0,0,1-1.18-1.1,13.1,13.1,0,0,0-2.21-2.37c-.67-.42-2.3-1.48-2.62-1.72s-.8-.53-1.53-1" transform="translate(-8.45 -7.29)"/><path class="cls-4" d="M141.49,95.87c-.64-.65.18-.74.93-1,2.78-1.07,19.31-6.25,33.69-10s35.1-8.08,38.18-8.7c1.3-.27,1.79-.07,2.45,1a33.35,33.35,0,0,1,3,8.62,22.67,22.67,0,0,1-.33,9.45c-.32.86-1.49.91-4.3,1.67-1.67.46-8.83,2.3-11.76,3.14-3.38,1-12.32,3.57-15.63,4.7-4.09,1.39-9.46,3.17-9.46,3.17l-28.47.48a8.74,8.74,0,0,0-.67-2.09c-.25-.16-.68-1.1-.92-1.35a4.25,4.25,0,0,1-.6-1.17s-.25-1-.51-1.19-.87-1.63-1.12-1.79a8.34,8.34,0,0,1-1.08-1.25,4.64,4.64,0,0,0-.82-1.1c-.42-.33-1-1-1.28-1.18s-.62-.69-1.28-1.34" transform="translate(-8.45 -7.29)"/><path class="cls-4" d="M107.06,41c-.81,0-1.52,0-1.71-.23s0-.36-.19-.53a.7.7,0,0,0-.74,0,.79.79,0,0,1-.38.19c-.28.09-1.36-.29-1.75-.16a2.72,2.72,0,0,1-1.44,0c-.28-.14-.33-.87-.8-1.07a3.33,3.33,0,0,1-1.3-1c-.25-.45-.92-1.1-1.07-1.42s-.35-.81-.45-1.08a5,5,0,0,0-.5-1c-.17-.19-.37-.36-.55-.53s-.3-.79-.47-1.06a6.13,6.13,0,0,1-.38-.59c-.1-.2-.1-.44-.19-.67s-.39-.57-.45-.8a20.52,20.52,0,0,1-.12-2.84,19.44,19.44,0,0,1,.12-2.63c.12-.45.36-.9.45-1.36s.69-2,.85-2.76a23.74,23.74,0,0,1,.74-2.57,20.17,20.17,0,0,1,.95-2.15c.25-.41,1.21-1.83,1.59-2.32a32.07,32.07,0,0,1,2.53-2.53l1.69-1.24c.18-.13,1.4-1,1.8-1.23a1.67,1.67,0,0,1,.76-.19l.41-.42a3.57,3.57,0,0,1,.44-.41,1.8,1.8,0,0,1,.76-.15,1.76,1.76,0,0,1,1.26-.35c.27.06.48-.45.73-.52a3.26,3.26,0,0,1,1.3-.06,1.22,1.22,0,0,0,.8.38,10.27,10.27,0,0,0,1.13,0c.27.08.55.42.74.48A20.51,20.51,0,0,1,116.43,11c.1.19.13.53.19.64a2.39,2.39,0,0,1,.63,1c.11.46.57.61.64,1.27,0,.4.77.73,1,1.55,0,.2.14,1,.2,1.13s.24.17.33.45a2.83,2.83,0,0,1,.12,1,14.91,14.91,0,0,1,.54,2.44,10.45,10.45,0,0,1-.41,2.24c-.19.6-.06,1.75-.19,2.23s-.47,1.61-.53,2a25.44,25.44,0,0,1-1.21,3c-.15.26-.71,1.34-1,1.66s-2.21,3-2.55,3.39-1.23,1-1.4,1.26-.41.78-.66,1.18c-.39.62-.92.16-1.17.6-.36.6-1,.75-1.14,1.11a3,3,0,0,1-.82,1.18,4.1,4.1,0,0,1-2,.7" transform="translate(-8.45 -7.29)"/><path class="cls-4" d="M50.17,124.42s-8.33,2.81-11.65,4c-3.15,1.13-6.61,2.34-8.93,3.3-2.83,1.14-7.81,3.17-9,3.59-1.85.65-2.64.27-3.15-.84a32,32,0,0,1-2.38-6.09,34.83,34.83,0,0,1-1-5.78,3.7,3.7,0,0,1,1.67-2.88c1-.56,3.43-2,5.39-3.15,3.71-2.14,16.5-9,24.12-12.9,8.07-4.17,20.79-10.35,27.64-13.72S91,81.24,92.35,80.65a13.43,13.43,0,0,1,3.45-1.27c.68,0,.42.34.42.6s-.23.36-.31.87a10.07,10.07,0,0,1-.19,1.59c-.17.5-.61,1-.7,1.31a6.48,6.48,0,0,1-.47,2,16.28,16.28,0,0,0-1.81,3.86,19.47,19.47,0,0,1-1.08,3.32,14.55,14.55,0,0,0-1.14,2.51,22.77,22.77,0,0,1-.8,2.22c-.17.51-1.17,2.38-1.35,2.73s-.84,2.59-1,2.94-.84,1.35-.84,1.35l-.33,1.43a9.21,9.21,0,0,0-.94,1.61,13.84,13.84,0,0,1-1,3,39.15,39.15,0,0,0-2.28,5.4c-.34,1.27-.93,3.13-1.09,3.55s-1.11,2-1.27,2.45-.93,3-1.19,3.55a10,10,0,0,0-.93,2.45,9.57,9.57,0,0,1-.92,2.54c-.43.93-.94,2.53-1.19,3.13s-.59,1-.67,1.34-.18,1.28-.26,1.54-.25.67-.25.67c-.44.2-23.15,10-26.35,11.48L20.14,161.93c-1.44.68-3.35,2.14-4.74,1.2-1.81-1.24-3.55-3.83-4.73-6.13a22.69,22.69,0,0,1-2.2-7.43c-.19-2.91,1-3.45,5.31-5.92,2.08-1.23,18.67-10,24-12.72,1.52-.78,12.42-6.52,12.42-6.52" transform="translate(-8.45 -7.29)"/></g></svg>